<?xml version="1.0" encoding="UTF-8"?> <svg xmlns="http://www.w3.org/2000/svg" width="365" height="173" viewBox="0 0 365 173" fill="none"><path d="M0 135.347C0 125.865 8.68822 118.762 17.9812 120.646L269.74 171.701C270.721 171.9 271.72 172 272.721 172H365H15C6.71574 172 0 165.284 0 157V135.347Z" fill="url(#paint0_linear_391_3286)"></path><path d="M365 36.6528C365 46.1349 356.312 53.2381 347.019 51.3536L95.2603 0.299225C94.279 0.100236 93.2803 -7.83597e-06 92.2791 -7.74844e-06L-2.90091e-06 3.18852e-07L350 -3.02791e-05C358.284 -3.10034e-05 365 6.7157 365 15L365 36.6528Z" fill="url(#paint1_linear_391_3286)"></path><path d="M42.296 104H38.456V68.816C42.344 68.768 46.184 68.768 50.072 68.816C56.408 68.912 61.448 72.896 61.448 79.472C61.448 84.56 58.76 88.304 52.904 89.168L62.408 104H57.752L46.04 85.568C47.48 85.616 48.92 85.616 50.312 85.568C54.872 85.424 57.416 83.936 57.416 79.472C57.416 75.488 54.296 72.896 49.64 72.8C47.192 72.752 44.696 72.752 42.296 72.8V104ZM91.2819 85.52V89.264H77.8419V85.52H91.2819ZM119.068 104.624C112.78 104.624 108.46 100.784 107.356 95.504L111.244 93.872C112.108 98.096 114.7 100.544 119.068 100.544C123.58 100.544 125.98 98.432 125.98 94.592C125.98 91.184 123.484 88.928 118.06 86.96C111.628 84.608 108.268 82.016 108.268 76.928C108.268 72.176 112.252 68.192 118.156 68.192C123.052 68.192 126.556 70.016 129.052 74.336L125.644 76.448C123.964 73.424 121.612 72.08 118.3 72.08C114.844 72.08 112.204 73.856 112.204 77.024C112.204 80.144 115.276 81.92 120.22 83.744C127.036 86.288 129.964 90.032 129.964 94.784C129.964 99.872 126.076 104.624 119.068 104.624ZM166.52 100.736C164.456 103.376 160.856 104.816 157.256 104.816C150.488 104.816 145.688 99.776 145.688 92.816C145.688 85.712 150.44 80.864 157.016 80.864C163.592 80.864 168.344 85.712 168.344 92.816C168.344 93.248 168.344 93.728 168.296 94.16H149.384C149.864 98.576 153.032 101.168 157.256 101.168C159.656 101.168 162.536 99.872 163.976 98.096L166.52 100.736ZM149.528 90.752H164.504C163.88 87.008 160.808 84.512 157.016 84.512C153.224 84.512 150.152 87.008 149.528 90.752ZM194.195 84.944C192.899 84.656 192.179 84.608 191.411 84.608C190.355 84.608 189.299 84.704 188.195 85.088V104H184.547V82.208C186.851 81.152 188.819 80.816 191.171 80.816C192.419 80.816 193.811 80.912 195.059 81.152L194.195 84.944ZM231.962 81.44L222.554 104H218.618L209.21 81.44H213.098L219.242 96.848L220.586 100.496L221.93 96.848L228.074 81.44H231.962ZM247.959 72.896H252.327V77.264H247.959V72.896ZM246.615 84.896L247.383 81.44H252.231V104H248.775V84.896H246.615ZM289.85 100.736C287.786 103.376 284.186 104.816 280.586 104.816C273.818 104.816 269.018 99.776 269.018 92.816C269.018 85.712 274.01 80.864 280.586 80.864C284.282 80.864 287.738 82.304 289.85 84.944L287.306 87.488C285.866 85.616 283.13 84.512 280.586 84.512C276.122 84.512 272.618 87.92 272.618 92.816C272.618 98.048 275.93 101.168 280.586 101.168C282.986 101.168 285.866 99.968 287.306 98.192L289.85 100.736ZM325.838 100.736C323.774 103.376 320.174 104.816 316.574 104.816C309.806 104.816 305.006 99.776 305.006 92.816C305.006 85.712 309.758 80.864 316.334 80.864C322.91 80.864 327.662 85.712 327.662 92.816C327.662 93.248 327.662 93.728 327.614 94.16H308.702C309.182 98.576 312.35 101.168 316.574 101.168C318.974 101.168 321.854 99.872 323.294 98.096L325.838 100.736ZM308.846 90.752H323.822C323.198 87.008 320.126 84.512 316.334 84.512C312.542 84.512 309.47 87.008 308.846 90.752Z" fill="#FFFFFA"></path><path fill-rule="evenodd" clip-rule="evenodd" d="M350 1H15C7.26801 1 1 7.26801 1 15V158C1 165.732 7.26802 172 15 172H350C357.732 172 364 165.732 364 158V15C364 7.26801 357.732 1 350 1ZM15 0C6.71573 0 0 6.71573 0 15V158C0 166.284 6.71574 173 15 173H350C358.284 173 365 166.284 365 158V15C365 6.71573 358.284 0 350 0H15Z" fill="url(#paint2_linear_391_3286)"></path><defs><linearGradient id="paint0_linear_391_3286" x1="182.5" y1="117" x2="182.5" y2="172" gradientUnits="userSpaceOnUse"><stop stop-color="#23B4C8"></stop><stop offset="1" stop-color="#1A2E31"></stop></linearGradient><linearGradient id="paint1_linear_391_3286" x1="182.5" y1="55" x2="182.5" y2="-1.45629e-05" gradientUnits="userSpaceOnUse"><stop stop-color="#23B4C8"></stop><stop offset="1" stop-color="#1A2E31"></stop></linearGradient><linearGradient id="paint2_linear_391_3286" x1="182.5" y1="0" x2="182.5" y2="173" gradientUnits="userSpaceOnUse"><stop stop-color="#23B4C8"></stop><stop offset="1" stop-color="#1A2E31"></stop></linearGradient></defs></svg> 